<?xml version="1.0" encoding="us-ascii" standalone="no"?><svg xmlns="http://www.w3.org/2000/svg" xmlns:xlink="http://www.w3.org/1999/xlink" contentStyleType="text/css" height="405px" preserveAspectRatio="none" style="width:525px;height:405px;background:#FFFFFF;" version="1.1" viewBox="0 0 525 405" width="525px" zoomAndPan="magnify"><defs/><g><text fill="#000000" font-family="sans-serif" font-size="14" font-weight="bold" lengthAdjust="spacing" textLength="233" x="145" y="27.7969">UC4: Announce Player Scores</text><rect fill="#FFFFFF" height="156.5313" style="stroke:#181818;stroke-width:1.0;" width="10" x="311.5" y="149.7266"/><rect fill="#FFFFFF" height="98.3984" style="stroke:#181818;stroke-width:1.0;" width="10" x="316.5" y="186.8594"/><rect fill="#FFFFFF" height="29.1328" style="stroke:#181818;stroke-width:1.0;" width="10" x="471.5" y="220.9922"/><line style="stroke:#181818;stroke-width:0.5;stroke-dasharray:5.0,5.0;" x1="59" x2="59" y1="118.5938" y2="324.2578"/><line style="stroke:#181818;stroke-width:0.5;stroke-dasharray:5.0,5.0;" x1="316.5" x2="316.5" y1="118.5938" y2="324.2578"/><line style="stroke:#181818;stroke-width:0.5;stroke-dasharray:5.0,5.0;" x1="476" x2="476" y1="118.5938" y2="324.2578"/><text fill="#000000" font-family="sans-serif" font-size="14" lengthAdjust="spacing" textLength="103" x="5" y="115.0938">AutoDropDead</text><ellipse cx="59.5" cy="50.7969" fill="#E2E2F0" rx="8" ry="8" style="stroke:#181818;stroke-width:0.5;"/><path d="M59.5,58.7969 L59.5,85.7969 M46.5,66.7969 L72.5,66.7969 M59.5,85.7969 L46.5,100.7969 M59.5,85.7969 L72.5,100.7969 " fill="none" style="stroke:#181818;stroke-width:0.5;"/><text fill="#000000" font-family="sans-serif" font-size="14" lengthAdjust="spacing" textLength="103" x="5" y="336.0547">AutoDropDead</text><ellipse cx="59.5" cy="348.0547" fill="#E2E2F0" rx="8" ry="8" style="stroke:#181818;stroke-width:0.5;"/><path d="M59.5,356.0547 L59.5,383.0547 M46.5,364.0547 L72.5,364.0547 M59.5,383.0547 L46.5,398.0547 M59.5,383.0547 L72.5,398.0547 " fill="none" style="stroke:#181818;stroke-width:0.5;"/><rect fill="#E2E2F0" height="30.2969" rx="2.5" ry="2.5" style="stroke:#181818;stroke-width:0.5;" width="94" x="269.5" y="87.2969"/><text fill="#000000" font-family="sans-serif" font-size="14" lengthAdjust="spacing" textLength="80" x="276.5" y="107.0938">Scoreboard</text><rect fill="#E2E2F0" height="30.2969" rx="2.5" ry="2.5" style="stroke:#181818;stroke-width:0.5;" width="94" x="269.5" y="323.2578"/><text fill="#000000" font-family="sans-serif" font-size="14" lengthAdjust="spacing" textLength="80" x="276.5" y="343.0547">Scoreboard</text><rect fill="#E2E2F0" height="30.2969" rx="2.5" ry="2.5" style="stroke:#181818;stroke-width:0.5;" width="85" x="434" y="87.2969"/><text fill="#000000" font-family="sans-serif" font-size="14" lengthAdjust="spacing" textLength="71" x="441" y="107.0938">DropDead</text><rect fill="#E2E2F0" height="30.2969" rx="2.5" ry="2.5" style="stroke:#181818;stroke-width:0.5;" width="85" x="434" y="323.2578"/><text fill="#000000" font-family="sans-serif" font-size="14" lengthAdjust="spacing" textLength="71" x="441" y="343.0547">DropDead</text><rect fill="#FFFFFF" height="156.5313" style="stroke:#181818;stroke-width:1.0;" width="10" x="311.5" y="149.7266"/><rect fill="#FFFFFF" height="98.3984" style="stroke:#181818;stroke-width:1.0;" width="10" x="316.5" y="186.8594"/><rect fill="#FFFFFF" height="29.1328" style="stroke:#181818;stroke-width:1.0;" width="10" x="471.5" y="220.9922"/><polygon fill="#181818" points="299.5,145.7266,309.5,149.7266,299.5,153.7266,303.5,149.7266" style="stroke:#181818;stroke-width:1.0;"/><line style="stroke:#181818;stroke-width:1.0;" x1="59.5" x2="305.5" y1="149.7266" y2="149.7266"/><text fill="#000000" font-family="sans-serif" font-size="13" lengthAdjust="spacing" textLength="233" x="66.5" y="144.4766">announce_player_scores(DropDead)</text><line style="stroke:#181818;stroke-width:1.0;" x1="321.5" x2="368.5" y1="173.8594" y2="173.8594"/><line style="stroke:#181818;stroke-width:1.0;" x1="368.5" x2="368.5" y1="173.8594" y2="186.8594"/><line style="stroke:#181818;stroke-width:1.0;" x1="327.5" x2="368.5" y1="186.8594" y2="186.8594"/><polygon fill="#181818" points="337.5,182.8594,327.5,186.8594,337.5,190.8594,333.5,186.8594" style="stroke:#181818;stroke-width:1.0;"/><text fill="#000000" font-family="sans-serif" font-size="13" lengthAdjust="spacing" textLength="126" x="333.5" y="168.6094">get_player_scores()</text><polygon fill="#181818" points="459.5,216.9922,469.5,220.9922,459.5,224.9922,463.5,220.9922" style="stroke:#181818;stroke-width:1.0;"/><line style="stroke:#181818;stroke-width:1.0;" x1="326.5" x2="465.5" y1="220.9922" y2="220.9922"/><text fill="#000000" font-family="sans-serif" font-size="13" lengthAdjust="spacing" textLength="126" x="333.5" y="215.7422">get_player_scores()</text><polygon fill="#181818" points="337.5,246.125,327.5,250.125,337.5,254.125,333.5,250.125" style="stroke:#181818;stroke-width:1.0;"/><line style="stroke:#181818;stroke-width:1.0;stroke-dasharray:2.0,2.0;" x1="331.5" x2="475.5" y1="250.125" y2="250.125"/><text fill="#000000" font-family="sans-serif" font-size="13" lengthAdjust="spacing" textLength="86" x="343.5" y="244.875">PlayerScore[]</text><line style="stroke:#181818;stroke-width:1.0;stroke-dasharray:2.0,2.0;" x1="326.5" x2="368.5" y1="284.2578" y2="284.2578"/><line style="stroke:#181818;stroke-width:1.0;stroke-dasharray:2.0,2.0;" x1="368.5" x2="368.5" y1="284.2578" y2="297.2578"/><line style="stroke:#181818;stroke-width:1.0;stroke-dasharray:2.0,2.0;" x1="321.5" x2="368.5" y1="297.2578" y2="297.2578"/><polygon fill="#181818" points="331.5,293.2578,321.5,297.2578,331.5,301.2578,327.5,297.2578" style="stroke:#181818;stroke-width:1.0;"/><text fill="#000000" font-family="sans-serif" font-size="13" lengthAdjust="spacing" textLength="86" x="333.5" y="279.0078">PlayerScore[]</text><polygon fill="#181818" points="70.5,302.2578,60.5,306.2578,70.5,310.2578,66.5,306.2578" style="stroke:#181818;stroke-width:1.0;"/><line style="stroke:#181818;stroke-width:1.0;stroke-dasharray:2.0,2.0;" x1="64.5" x2="315.5" y1="306.2578" y2="306.2578"/></g></svg>