<?xml version="1.0" encoding="us-ascii" standalone="no"?><svg xmlns="http://www.w3.org/2000/svg" xmlns:xlink="http://www.w3.org/1999/xlink" contentStyleType="text/css" height="1175px" preserveAspectRatio="none" style="width:708px;height:1175px;background:#FFFFFF;" version="1.1" viewBox="0 0 708 1175" width="708px" zoomAndPan="magnify"><defs/><g><text fill="#000000" font-family="sans-serif" font-size="14" font-weight="bold" lengthAdjust="spacing" textLength="154" x="278.5" y="27.7969">UC3: Perform Turns</text><rect fill="#FFFFFF" height="926.7969" style="stroke:#181818;stroke-width:1.0;" width="10" x="179.5" y="149.7266"/><rect fill="#FFFFFF" height="30" style="stroke:#181818;stroke-width:1.0;" width="10" x="184.5" y="457.0547"/><rect fill="#FFFFFF" height="30" style="stroke:#181818;stroke-width:1.0;" width="10" x="184.5" y="840.1875"/><rect fill="#FFFFFF" height="828.3984" style="stroke:#181818;stroke-width:1.0;" width="10" x="383.5" y="227.125"/><rect fill="#FFFFFF" height="98.3984" style="stroke:#181818;stroke-width:1.0;" width="10" x="388.5" y="264.2578"/><rect fill="#FFFFFF" height="98.3984" style="stroke:#181818;stroke-width:1.0;" width="10" x="388.5" y="548.3203"/><rect fill="#FFFFFF" height="98.3984" style="stroke:#181818;stroke-width:1.0;" width="10" x="388.5" y="705.6563"/><rect fill="#FFFFFF" height="98.3984" style="stroke:#181818;stroke-width:1.0;" width="10" x="388.5" y="929.125"/><rect fill="#FFFFFF" height="29.1328" style="stroke:#181818;stroke-width:1.0;" width="10" x="624.5" y="298.3906"/><rect fill="#FFFFFF" height="29.1328" style="stroke:#181818;stroke-width:1.0;" width="10" x="624.5" y="398.7891"/><rect fill="#FFFFFF" height="29.1328" style="stroke:#181818;stroke-width:1.0;" width="10" x="624.5" y="582.4531"/><rect fill="#FFFFFF" height="29.1328" style="stroke:#181818;stroke-width:1.0;" width="10" x="624.5" y="739.7891"/><rect fill="#FFFFFF" height="29.1328" style="stroke:#181818;stroke-width:1.0;" width="10" x="624.5" y="963.2578"/><rect fill="none" height="898.7969" style="stroke:#000000;stroke-width:1.5;" width="579" x="123" y="164.7266"/><rect fill="none" height="853.6641" style="stroke:#000000;stroke-width:1.5;" width="559" x="133" y="188.8594"/><rect fill="none" height="376.1328" style="stroke:#000000;stroke-width:1.5;" width="539" x="143" y="502.0547"/><line style="stroke:#181818;stroke-width:0.5;stroke-dasharray:5.0,5.0;" x1="59" x2="59" y1="118.5938" y2="1094.5234"/><line style="stroke:#181818;stroke-width:0.5;stroke-dasharray:5.0,5.0;" x1="184" x2="184" y1="118.5938" y2="1094.5234"/><line style="stroke:#181818;stroke-width:0.5;stroke-dasharray:5.0,5.0;" x1="388.5" x2="388.5" y1="118.5938" y2="1094.5234"/><line style="stroke:#181818;stroke-width:0.5;stroke-dasharray:5.0,5.0;" x1="629" x2="629" y1="118.5938" y2="1094.5234"/><text fill="#000000" font-family="sans-serif" font-size="14" lengthAdjust="spacing" textLength="103" x="5" y="115.0938">AutoDropDead</text><ellipse cx="59.5" cy="50.7969" fill="#E2E2F0" rx="8" ry="8" style="stroke:#181818;stroke-width:0.5;"/><path d="M59.5,58.7969 L59.5,85.7969 M46.5,66.7969 L72.5,66.7969 M59.5,85.7969 L46.5,100.7969 M59.5,85.7969 L72.5,100.7969 " fill="none" style="stroke:#181818;stroke-width:0.5;"/><text fill="#000000" font-family="sans-serif" font-size="14" lengthAdjust="spacing" textLength="103" x="5" y="1106.3203">AutoDropDead</text><ellipse cx="59.5" cy="1118.3203" fill="#E2E2F0" rx="8" ry="8" style="stroke:#181818;stroke-width:0.5;"/><path d="M59.5,1126.3203 L59.5,1153.3203 M46.5,1134.3203 L72.5,1134.3203 M59.5,1153.3203 L46.5,1168.3203 M59.5,1153.3203 L72.5,1168.3203 " fill="none" style="stroke:#181818;stroke-width:0.5;"/><rect fill="#E2E2F0" height="30.2969" rx="2.5" ry="2.5" style="stroke:#181818;stroke-width:0.5;" width="63" x="153" y="87.2969"/><text fill="#000000" font-family="sans-serif" font-size="14" lengthAdjust="spacing" textLength="49" x="160" y="107.0938">Players</text><rect fill="#E2E2F0" height="30.2969" rx="2.5" ry="2.5" style="stroke:#181818;stroke-width:0.5;" width="63" x="153" y="1093.5234"/><text fill="#000000" font-family="sans-serif" font-size="14" lengthAdjust="spacing" textLength="49" x="160" y="1113.3203">Players</text><rect fill="#E2E2F0" height="30.2969" rx="2.5" ry="2.5" style="stroke:#181818;stroke-width:0.5;" width="122" x="327.5" y="87.2969"/><text fill="#000000" font-family="sans-serif" font-size="14" lengthAdjust="spacing" textLength="108" x="334.5" y="107.0938">PlayerController</text><rect fill="#E2E2F0" height="30.2969" rx="2.5" ry="2.5" style="stroke:#181818;stroke-width:0.5;" width="122" x="327.5" y="1093.5234"/><text fill="#000000" font-family="sans-serif" font-size="14" lengthAdjust="spacing" textLength="108" x="334.5" y="1113.3203">PlayerController</text><rect fill="#E2E2F0" height="30.2969" rx="2.5" ry="2.5" style="stroke:#181818;stroke-width:0.5;" width="85" x="587" y="87.2969"/><text fill="#000000" font-family="sans-serif" font-size="14" lengthAdjust="spacing" textLength="71" x="594" y="107.0938">DropDead</text><rect fill="#E2E2F0" height="30.2969" rx="2.5" ry="2.5" style="stroke:#181818;stroke-width:0.5;" width="85" x="587" y="1093.5234"/><text fill="#000000" font-family="sans-serif" font-size="14" lengthAdjust="spacing" textLength="71" x="594" y="1113.3203">DropDead</text><rect fill="#FFFFFF" height="926.7969" style="stroke:#181818;stroke-width:1.0;" width="10" x="179.5" y="149.7266"/><rect fill="#FFFFFF" height="30" style="stroke:#181818;stroke-width:1.0;" width="10" x="184.5" y="457.0547"/><rect fill="#FFFFFF" height="30" style="stroke:#181818;stroke-width:1.0;" width="10" x="184.5" y="840.1875"/><rect fill="#FFFFFF" height="828.3984" style="stroke:#181818;stroke-width:1.0;" width="10" x="383.5" y="227.125"/><rect fill="#FFFFFF" height="98.3984" style="stroke:#181818;stroke-width:1.0;" width="10" x="388.5" y="264.2578"/><rect fill="#FFFFFF" height="98.3984" style="stroke:#181818;stroke-width:1.0;" width="10" x="388.5" y="548.3203"/><rect fill="#FFFFFF" height="98.3984" style="stroke:#181818;stroke-width:1.0;" width="10" x="388.5" y="705.6563"/><rect fill="#FFFFFF" height="98.3984" style="stroke:#181818;stroke-width:1.0;" width="10" x="388.5" y="929.125"/><rect fill="#FFFFFF" height="29.1328" style="stroke:#181818;stroke-width:1.0;" width="10" x="624.5" y="298.3906"/><rect fill="#FFFFFF" height="29.1328" style="stroke:#181818;stroke-width:1.0;" width="10" x="624.5" y="398.7891"/><rect fill="#FFFFFF" height="29.1328" style="stroke:#181818;stroke-width:1.0;" width="10" x="624.5" y="582.4531"/><rect fill="#FFFFFF" height="29.1328" style="stroke:#181818;stroke-width:1.0;" width="10" x="624.5" y="739.7891"/><rect fill="#FFFFFF" height="29.1328" style="stroke:#181818;stroke-width:1.0;" width="10" x="624.5" y="963.2578"/><polygon fill="#181818" points="167.5,145.7266,177.5,149.7266,167.5,153.7266,171.5,149.7266" style="stroke:#181818;stroke-width:1.0;"/><line style="stroke:#181818;stroke-width:1.0;" x1="59.5" x2="173.5" y1="149.7266" y2="149.7266"/><text fill="#000000" font-family="sans-serif" font-size="13" lengthAdjust="spacing" textLength="101" x="66.5" y="144.4766">perform_turns()</text><path d="M123,164.7266 L199,164.7266 L199,171.8594 L189,181.8594 L123,181.8594 L123,164.7266 " fill="#EEEEEE" style="stroke:#000000;stroke-width:1.5;"/><rect fill="none" height="898.7969" style="stroke:#000000;stroke-width:1.5;" width="579" x="123" y="164.7266"/><text fill="#000000" font-family="sans-serif" font-size="13" font-weight="bold" lengthAdjust="spacing" textLength="31" x="138" y="177.6094">loop</text><text fill="#000000" font-family="sans-serif" font-size="11" font-weight="bold" lengthAdjust="spacing" textLength="217" x="214" y="176.7813">[until there are no more alive players]</text><path d="M133,188.8594 L197,188.8594 L197,195.9922 L187,205.9922 L133,205.9922 L133,188.8594 " fill="#EEEEEE" style="stroke:#000000;stroke-width:1.5;"/><rect fill="none" height="853.6641" style="stroke:#000000;stroke-width:1.5;" width="559" x="133" y="188.8594"/><text fill="#000000" font-family="sans-serif" font-size="13" font-weight="bold" lengthAdjust="spacing" textLength="19" x="148" y="201.7422">alt</text><text fill="#000000" font-family="sans-serif" font-size="11" font-weight="bold" lengthAdjust="spacing" textLength="168" x="212" y="200.9141">[it's the current player's turn]</text><polygon fill="#181818" points="371.5,223.125,381.5,227.125,371.5,231.125,375.5,227.125" style="stroke:#181818;stroke-width:1.0;"/><line style="stroke:#181818;stroke-width:1.0;" x1="189.5" x2="377.5" y1="227.125" y2="227.125"/><text fill="#000000" font-family="sans-serif" font-size="13" lengthAdjust="spacing" textLength="175" x="196.5" y="221.875">perform_turn(onDropDead)</text><line style="stroke:#181818;stroke-width:1.0;" x1="393.5" x2="440.5" y1="251.2578" y2="251.2578"/><line style="stroke:#181818;stroke-width:1.0;" x1="440.5" x2="440.5" y1="251.2578" y2="264.2578"/><line style="stroke:#181818;stroke-width:1.0;" x1="399.5" x2="440.5" y1="264.2578" y2="264.2578"/><polygon fill="#181818" points="409.5,260.2578,399.5,264.2578,409.5,268.2578,405.5,264.2578" style="stroke:#181818;stroke-width:1.0;"/><text fill="#000000" font-family="sans-serif" font-size="13" lengthAdjust="spacing" textLength="78" x="405.5" y="246.0078">get_status()</text><polygon fill="#181818" points="612.5,294.3906,622.5,298.3906,612.5,302.3906,616.5,298.3906" style="stroke:#181818;stroke-width:1.0;"/><line style="stroke:#181818;stroke-width:1.0;" x1="398.5" x2="618.5" y1="298.3906" y2="298.3906"/><text fill="#000000" font-family="sans-serif" font-size="13" lengthAdjust="spacing" textLength="207" x="405.5" y="293.1406">get_player_status(self.player_id)</text><polygon fill="#181818" points="409.5,323.5234,399.5,327.5234,409.5,331.5234,405.5,327.5234" style="stroke:#181818;stroke-width:1.0;"/><line style="stroke:#181818;stroke-width:1.0;stroke-dasharray:2.0,2.0;" x1="403.5" x2="628.5" y1="327.5234" y2="327.5234"/><text fill="#000000" font-family="sans-serif" font-size="13" lengthAdjust="spacing" textLength="45" x="415.5" y="322.2734">ACTIVE</text><line style="stroke:#181818;stroke-width:1.0;stroke-dasharray:2.0,2.0;" x1="398.5" x2="440.5" y1="361.6563" y2="361.6563"/><line style="stroke:#181818;stroke-width:1.0;stroke-dasharray:2.0,2.0;" x1="440.5" x2="440.5" y1="361.6563" y2="374.6563"/><line style="stroke:#181818;stroke-width:1.0;stroke-dasharray:2.0,2.0;" x1="393.5" x2="440.5" y1="374.6563" y2="374.6563"/><polygon fill="#181818" points="403.5,370.6563,393.5,374.6563,403.5,378.6563,399.5,374.6563" style="stroke:#181818;stroke-width:1.0;"/><text fill="#000000" font-family="sans-serif" font-size="13" lengthAdjust="spacing" textLength="45" x="405.5" y="356.4063">ACTIVE</text><polygon fill="#181818" points="612.5,394.7891,622.5,398.7891,612.5,402.7891,616.5,398.7891" style="stroke:#181818;stroke-width:1.0;"/><line style="stroke:#181818;stroke-width:1.0;" x1="393.5" x2="618.5" y1="398.7891" y2="398.7891"/><text fill="#000000" font-family="sans-serif" font-size="13" lengthAdjust="spacing" textLength="177" x="400.5" y="393.5391">perform_turn(self.player_id)</text><polygon fill="#181818" points="404.5,423.9219,394.5,427.9219,404.5,431.9219,400.5,427.9219" style="stroke:#181818;stroke-width:1.0;"/><line style="stroke:#181818;stroke-width:1.0;stroke-dasharray:2.0,2.0;" x1="398.5" x2="628.5" y1="427.9219" y2="427.9219"/><text fill="#000000" font-family="sans-serif" font-size="13" lengthAdjust="spacing" textLength="72" x="410.5" y="422.6719">roll_result[]</text><polygon fill="#181818" points="205.5,453.0547,195.5,457.0547,205.5,461.0547,201.5,457.0547" style="stroke:#181818;stroke-width:1.0;"/><line style="stroke:#181818;stroke-width:1.0;" x1="199.5" x2="382.5" y1="457.0547" y2="457.0547"/><text fill="#000000" font-family="sans-serif" font-size="13" lengthAdjust="spacing" textLength="48" x="211.5" y="451.8047">onRoll()</text><path d="M143,502.0547 L207,502.0547 L207,509.1875 L197,519.1875 L143,519.1875 L143,502.0547 " fill="#EEEEEE" style="stroke:#000000;stroke-width:1.5;"/><rect fill="none" height="376.1328" style="stroke:#000000;stroke-width:1.5;" width="539" x="143" y="502.0547"/><text fill="#000000" font-family="sans-serif" font-size="13" font-weight="bold" lengthAdjust="spacing" textLength="19" x="158" y="514.9375">alt</text><text fill="#000000" font-family="sans-serif" font-size="11" font-weight="bold" lengthAdjust="spacing" textLength="169" x="222" y="514.1094">[player is still alive after turn]</text><line style="stroke:#181818;stroke-width:1.0;" x1="393.5" x2="440.5" y1="535.3203" y2="535.3203"/><line style="stroke:#181818;stroke-width:1.0;" x1="440.5" x2="440.5" y1="535.3203" y2="548.3203"/><line style="stroke:#181818;stroke-width:1.0;" x1="399.5" x2="440.5" y1="548.3203" y2="548.3203"/><polygon fill="#181818" points="409.5,544.3203,399.5,548.3203,409.5,552.3203,405.5,548.3203" style="stroke:#181818;stroke-width:1.0;"/><text fill="#000000" font-family="sans-serif" font-size="13" lengthAdjust="spacing" textLength="78" x="405.5" y="530.0703">get_status()</text><polygon fill="#181818" points="612.5,578.4531,622.5,582.4531,612.5,586.4531,616.5,582.4531" style="stroke:#181818;stroke-width:1.0;"/><line style="stroke:#181818;stroke-width:1.0;" x1="398.5" x2="618.5" y1="582.4531" y2="582.4531"/><text fill="#000000" font-family="sans-serif" font-size="13" lengthAdjust="spacing" textLength="207" x="405.5" y="577.2031">get_player_status(self.player_id)</text><polygon fill="#181818" points="409.5,607.5859,399.5,611.5859,409.5,615.5859,405.5,611.5859" style="stroke:#181818;stroke-width:1.0;"/><line style="stroke:#181818;stroke-width:1.0;stroke-dasharray:2.0,2.0;" x1="403.5" x2="628.5" y1="611.5859" y2="611.5859"/><text fill="#000000" font-family="sans-serif" font-size="13" lengthAdjust="spacing" textLength="45" x="415.5" y="606.3359">ACTIVE</text><line style="stroke:#181818;stroke-width:1.0;stroke-dasharray:2.0,2.0;" x1="398.5" x2="440.5" y1="645.7188" y2="645.7188"/><line style="stroke:#181818;stroke-width:1.0;stroke-dasharray:2.0,2.0;" x1="440.5" x2="440.5" y1="645.7188" y2="658.7188"/><line style="stroke:#181818;stroke-width:1.0;stroke-dasharray:2.0,2.0;" x1="393.5" x2="440.5" y1="658.7188" y2="658.7188"/><polygon fill="#181818" points="403.5,654.7188,393.5,658.7188,403.5,662.7188,399.5,658.7188" style="stroke:#181818;stroke-width:1.0;"/><text fill="#000000" font-family="sans-serif" font-size="13" lengthAdjust="spacing" textLength="45" x="405.5" y="640.4688">ACTIVE</text><line style="stroke:#000000;stroke-width:1.0;stroke-dasharray:2.0,2.0;" x1="143" x2="682" y1="662.7188" y2="662.7188"/><text fill="#000000" font-family="sans-serif" font-size="11" font-weight="bold" lengthAdjust="spacing" textLength="170" x="148" y="672.7734">[player drops dead after turn]</text><line style="stroke:#181818;stroke-width:1.0;" x1="393.5" x2="440.5" y1="692.6563" y2="692.6563"/><line style="stroke:#181818;stroke-width:1.0;" x1="440.5" x2="440.5" y1="692.6563" y2="705.6563"/><line style="stroke:#181818;stroke-width:1.0;" x1="399.5" x2="440.5" y1="705.6563" y2="705.6563"/><polygon fill="#181818" points="409.5,701.6563,399.5,705.6563,409.5,709.6563,405.5,705.6563" style="stroke:#181818;stroke-width:1.0;"/><text fill="#000000" font-family="sans-serif" font-size="13" lengthAdjust="spacing" textLength="78" x="405.5" y="687.4063">get_status()</text><polygon fill="#181818" points="612.5,735.7891,622.5,739.7891,612.5,743.7891,616.5,739.7891" style="stroke:#181818;stroke-width:1.0;"/><line style="stroke:#181818;stroke-width:1.0;" x1="398.5" x2="618.5" y1="739.7891" y2="739.7891"/><text fill="#000000" font-family="sans-serif" font-size="13" lengthAdjust="spacing" textLength="207" x="405.5" y="734.5391">get_player_status(self.player_id)</text><polygon fill="#181818" points="409.5,764.9219,399.5,768.9219,409.5,772.9219,405.5,768.9219" style="stroke:#181818;stroke-width:1.0;"/><line style="stroke:#181818;stroke-width:1.0;stroke-dasharray:2.0,2.0;" x1="403.5" x2="628.5" y1="768.9219" y2="768.9219"/><text fill="#000000" font-family="sans-serif" font-size="13" lengthAdjust="spacing" textLength="37" x="415.5" y="763.6719">DEAD</text><line style="stroke:#181818;stroke-width:1.0;stroke-dasharray:2.0,2.0;" x1="398.5" x2="440.5" y1="803.0547" y2="803.0547"/><line style="stroke:#181818;stroke-width:1.0;stroke-dasharray:2.0,2.0;" x1="440.5" x2="440.5" y1="803.0547" y2="816.0547"/><line style="stroke:#181818;stroke-width:1.0;stroke-dasharray:2.0,2.0;" x1="393.5" x2="440.5" y1="816.0547" y2="816.0547"/><polygon fill="#181818" points="403.5,812.0547,393.5,816.0547,403.5,820.0547,399.5,816.0547" style="stroke:#181818;stroke-width:1.0;"/><text fill="#000000" font-family="sans-serif" font-size="13" lengthAdjust="spacing" textLength="37" x="405.5" y="797.8047">DEAD</text><polygon fill="#181818" points="205.5,836.1875,195.5,840.1875,205.5,844.1875,201.5,840.1875" style="stroke:#181818;stroke-width:1.0;"/><line style="stroke:#181818;stroke-width:1.0;" x1="199.5" x2="382.5" y1="840.1875" y2="840.1875"/><text fill="#000000" font-family="sans-serif" font-size="13" lengthAdjust="spacing" textLength="113" x="211.5" y="834.9375">onDropDead(self)</text><line style="stroke:#000000;stroke-width:1.0;stroke-dasharray:2.0,2.0;" x1="133" x2="692" y1="886.1875" y2="886.1875"/><text fill="#000000" font-family="sans-serif" font-size="11" font-weight="bold" lengthAdjust="spacing" textLength="149" x="138" y="896.2422">[it is not the player's turn]</text><line style="stroke:#181818;stroke-width:1.0;" x1="393.5" x2="440.5" y1="916.125" y2="916.125"/><line style="stroke:#181818;stroke-width:1.0;" x1="440.5" x2="440.5" y1="916.125" y2="929.125"/><line style="stroke:#181818;stroke-width:1.0;" x1="399.5" x2="440.5" y1="929.125" y2="929.125"/><polygon fill="#181818" points="409.5,925.125,399.5,929.125,409.5,933.125,405.5,929.125" style="stroke:#181818;stroke-width:1.0;"/><text fill="#000000" font-family="sans-serif" font-size="13" lengthAdjust="spacing" textLength="78" x="405.5" y="910.875">get_status()</text><polygon fill="#181818" points="612.5,959.2578,622.5,963.2578,612.5,967.2578,616.5,963.2578" style="stroke:#181818;stroke-width:1.0;"/><line style="stroke:#181818;stroke-width:1.0;" x1="398.5" x2="618.5" y1="963.2578" y2="963.2578"/><text fill="#000000" font-family="sans-serif" font-size="13" lengthAdjust="spacing" textLength="207" x="405.5" y="958.0078">get_player_status(self.player_id)</text><polygon fill="#181818" points="409.5,988.3906,399.5,992.3906,409.5,996.3906,405.5,992.3906" style="stroke:#181818;stroke-width:1.0;"/><line style="stroke:#181818;stroke-width:1.0;stroke-dasharray:2.0,2.0;" x1="403.5" x2="628.5" y1="992.3906" y2="992.3906"/><text fill="#000000" font-family="sans-serif" font-size="13" lengthAdjust="spacing" textLength="53" x="415.5" y="987.1406">WAITING</text><line style="stroke:#181818;stroke-width:1.0;stroke-dasharray:2.0,2.0;" x1="398.5" x2="440.5" y1="1026.5234" y2="1026.5234"/><line style="stroke:#181818;stroke-width:1.0;stroke-dasharray:2.0,2.0;" x1="440.5" x2="440.5" y1="1026.5234" y2="1039.5234"/><line style="stroke:#181818;stroke-width:1.0;stroke-dasharray:2.0,2.0;" x1="393.5" x2="440.5" y1="1039.5234" y2="1039.5234"/><polygon fill="#181818" points="403.5,1035.5234,393.5,1039.5234,403.5,1043.5234,399.5,1039.5234" style="stroke:#181818;stroke-width:1.0;"/><text fill="#000000" font-family="sans-serif" font-size="13" lengthAdjust="spacing" textLength="53" x="405.5" y="1021.2734">WAITING</text><polygon fill="#181818" points="200.5,1051.5234,190.5,1055.5234,200.5,1059.5234,196.5,1055.5234" style="stroke:#181818;stroke-width:1.0;"/><line style="stroke:#181818;stroke-width:1.0;stroke-dasharray:2.0,2.0;" x1="194.5" x2="387.5" y1="1055.5234" y2="1055.5234"/><polygon fill="#181818" points="70.5,1072.5234,60.5,1076.5234,70.5,1080.5234,66.5,1076.5234" style="stroke:#181818;stroke-width:1.0;"/><line style="stroke:#181818;stroke-width:1.0;stroke-dasharray:2.0,2.0;" x1="64.5" x2="183.5" y1="1076.5234" y2="1076.5234"/></g></svg>