<?xml version="1.0" encoding="us-ascii" standalone="no"?><svg xmlns="http://www.w3.org/2000/svg" xmlns:xlink="http://www.w3.org/1999/xlink" contentStyleType="text/css" height="668px" preserveAspectRatio="none" style="width:1035px;height:668px;background:#FFFFFF;" version="1.1" viewBox="0 0 1035 668" width="1035px" zoomAndPan="magnify"><defs/><g><text fill="#000000" font-family="sans-serif" font-size="14" font-weight="bold" lengthAdjust="spacing" textLength="145" x="446" y="27.7969">UC8: Perform Turn</text><rect fill="#FFFFFF" height="510.5313" style="stroke:#181818;stroke-width:1.0;" width="10" x="178" y="104.7266"/><rect fill="#FFFFFF" height="447.3984" style="stroke:#181818;stroke-width:1.0;" width="10" x="358" y="133.8594"/><rect fill="#FFFFFF" height="59.1328" style="stroke:#181818;stroke-width:1.0;" width="10" x="363" y="507.125"/><rect fill="#FFFFFF" height="424.2656" style="stroke:#181818;stroke-width:1.0;" width="10" x="608" y="162.9922"/><rect fill="#FFFFFF" height="93.2656" style="stroke:#181818;stroke-width:1.0;" width="10" x="613" y="472.9922"/><rect fill="#FFFFFF" height="30" style="stroke:#181818;stroke-width:1.0;" width="10" x="618" y="536.2578"/><rect fill="#FFFFFF" height="29.1328" style="stroke:#181818;stroke-width:1.0;" width="10" x="750" y="216.2578"/><rect fill="#FFFFFF" height="29.1328" style="stroke:#181818;stroke-width:1.0;" width="10" x="750" y="406.7266"/><rect fill="#FFFFFF" height="29.1328" style="stroke:#181818;stroke-width:1.0;" width="10" x="846.5" y="274.5234"/><rect fill="#FFFFFF" height="30" style="stroke:#181818;stroke-width:1.0;" width="10" x="961" y="332.7891"/><rect fill="none" height="396.2656" style="stroke:#000000;stroke-width:1.5;" width="722.5" x="305.5" y="177.9922"/><line style="stroke:#181818;stroke-width:0.5;stroke-dasharray:5.0,5.0;" x1="182.5" x2="182.5" y1="73.5938" y2="633.2578"/><line style="stroke:#181818;stroke-width:0.5;stroke-dasharray:5.0,5.0;" x1="362.5" x2="362.5" y1="73.5938" y2="633.2578"/><line style="stroke:#181818;stroke-width:0.5;stroke-dasharray:5.0,5.0;" x1="612.5" x2="612.5" y1="73.5938" y2="633.2578"/><line style="stroke:#181818;stroke-width:0.5;stroke-dasharray:5.0,5.0;" x1="755" x2="755" y1="73.5938" y2="633.2578"/><line style="stroke:#181818;stroke-width:0.5;stroke-dasharray:5.0,5.0;" x1="851" x2="851" y1="73.5938" y2="633.2578"/><line style="stroke:#181818;stroke-width:0.5;stroke-dasharray:5.0,5.0;" x1="966" x2="966" y1="73.5938" y2="633.2578"/><rect fill="#E2E2F0" height="30.2969" rx="2.5" ry="2.5" style="stroke:#181818;stroke-width:0.5;" width="85" x="140.5" y="42.2969"/><text fill="#000000" font-family="sans-serif" font-size="14" lengthAdjust="spacing" textLength="71" x="147.5" y="62.0938">DropDead</text><rect fill="#E2E2F0" height="30.2969" rx="2.5" ry="2.5" style="stroke:#181818;stroke-width:0.5;" width="85" x="140.5" y="632.2578"/><text fill="#000000" font-family="sans-serif" font-size="14" lengthAdjust="spacing" textLength="71" x="147.5" y="652.0547">DropDead</text><rect fill="#E2E2F0" height="30.2969" rx="2.5" ry="2.5" style="stroke:#181818;stroke-width:0.5;" width="95" x="315.5" y="42.2969"/><text fill="#000000" font-family="sans-serif" font-size="14" lengthAdjust="spacing" textLength="81" x="322.5" y="62.0938">Coordinator</text><rect fill="#E2E2F0" height="30.2969" rx="2.5" ry="2.5" style="stroke:#181818;stroke-width:0.5;" width="95" x="315.5" y="632.2578"/><text fill="#000000" font-family="sans-serif" font-size="14" lengthAdjust="spacing" textLength="81" x="322.5" y="652.0547">Coordinator</text><rect fill="#E2E2F0" height="30.2969" rx="2.5" ry="2.5" style="stroke:#181818;stroke-width:0.5;" width="97" x="564.5" y="42.2969"/><text fill="#000000" font-family="sans-serif" font-size="14" lengthAdjust="spacing" textLength="83" x="571.5" y="62.0938">PlayerModel</text><rect fill="#E2E2F0" height="30.2969" rx="2.5" ry="2.5" style="stroke:#181818;stroke-width:0.5;" width="97" x="564.5" y="632.2578"/><text fill="#000000" font-family="sans-serif" font-size="14" lengthAdjust="spacing" textLength="83" x="571.5" y="652.0547">PlayerModel</text><rect fill="#E2E2F0" height="30.2969" rx="2.5" ry="2.5" style="stroke:#181818;stroke-width:0.5;" width="68" x="721" y="42.2969"/><text fill="#000000" font-family="sans-serif" font-size="14" lengthAdjust="spacing" textLength="54" x="728" y="62.0938">DiceSet</text><rect fill="#E2E2F0" height="30.2969" rx="2.5" ry="2.5" style="stroke:#181818;stroke-width:0.5;" width="68" x="721" y="632.2578"/><text fill="#000000" font-family="sans-serif" font-size="14" lengthAdjust="spacing" textLength="54" x="728" y="652.0547">DiceSet</text><rect fill="#E2E2F0" height="30.2969" rx="2.5" ry="2.5" style="stroke:#181818;stroke-width:0.5;" width="105" x="799" y="42.2969"/><text fill="#000000" font-family="sans-serif" font-size="14" lengthAdjust="spacing" textLength="91" x="806" y="62.0938">PointCounter</text><rect fill="#E2E2F0" height="30.2969" rx="2.5" ry="2.5" style="stroke:#181818;stroke-width:0.5;" width="105" x="799" y="632.2578"/><text fill="#000000" font-family="sans-serif" font-size="14" lengthAdjust="spacing" textLength="91" x="806" y="652.0547">PointCounter</text><rect fill="#E2E2F0" height="30.2969" rx="2.5" ry="2.5" style="stroke:#181818;stroke-width:0.5;" width="104" x="914" y="42.2969"/><text fill="#000000" font-family="sans-serif" font-size="14" lengthAdjust="spacing" textLength="90" x="921" y="62.0938">ScoreKeeper</text><rect fill="#E2E2F0" height="30.2969" rx="2.5" ry="2.5" style="stroke:#181818;stroke-width:0.5;" width="104" x="914" y="632.2578"/><text fill="#000000" font-family="sans-serif" font-size="14" lengthAdjust="spacing" textLength="90" x="921" y="652.0547">ScoreKeeper</text><rect fill="#FFFFFF" height="510.5313" style="stroke:#181818;stroke-width:1.0;" width="10" x="178" y="104.7266"/><rect fill="#FFFFFF" height="447.3984" style="stroke:#181818;stroke-width:1.0;" width="10" x="358" y="133.8594"/><rect fill="#FFFFFF" height="59.1328" style="stroke:#181818;stroke-width:1.0;" width="10" x="363" y="507.125"/><rect fill="#FFFFFF" height="424.2656" style="stroke:#181818;stroke-width:1.0;" width="10" x="608" y="162.9922"/><rect fill="#FFFFFF" height="93.2656" style="stroke:#181818;stroke-width:1.0;" width="10" x="613" y="472.9922"/><rect fill="#FFFFFF" height="30" style="stroke:#181818;stroke-width:1.0;" width="10" x="618" y="536.2578"/><rect fill="#FFFFFF" height="29.1328" style="stroke:#181818;stroke-width:1.0;" width="10" x="750" y="216.2578"/><rect fill="#FFFFFF" height="29.1328" style="stroke:#181818;stroke-width:1.0;" width="10" x="750" y="406.7266"/><rect fill="#FFFFFF" height="29.1328" style="stroke:#181818;stroke-width:1.0;" width="10" x="846.5" y="274.5234"/><rect fill="#FFFFFF" height="30" style="stroke:#181818;stroke-width:1.0;" width="10" x="961" y="332.7891"/><ellipse cx="7.5" cy="103.9766" fill="none" rx="4" ry="4" style="stroke:#181818;stroke-width:1.5;"/><polygon fill="#181818" points="166,100.7266,176,104.7266,166,108.7266,170,104.7266" style="stroke:#181818;stroke-width:1.0;"/><line style="stroke:#181818;stroke-width:1.0;" x1="12" x2="172" y1="104.7266" y2="104.7266"/><text fill="#000000" font-family="sans-serif" font-size="13" lengthAdjust="spacing" textLength="151" x="15" y="99.4766">perform_turn(player_id)</text><polygon fill="#181818" points="346,129.8594,356,133.8594,346,137.8594,350,133.8594" style="stroke:#181818;stroke-width:1.0;"/><line style="stroke:#181818;stroke-width:1.0;" x1="188" x2="352" y1="133.8594" y2="133.8594"/><text fill="#000000" font-family="sans-serif" font-size="13" lengthAdjust="spacing" textLength="151" x="195" y="128.6094">perform_turn(player_id)</text><polygon fill="#181818" points="596,158.9922,606,162.9922,596,166.9922,600,162.9922" style="stroke:#181818;stroke-width:1.0;"/><line style="stroke:#181818;stroke-width:1.0;" x1="368" x2="602" y1="162.9922" y2="162.9922"/><text fill="#000000" font-family="sans-serif" font-size="13" lengthAdjust="spacing" textLength="221" x="375" y="157.7422">perform_turn(onDropDead, onRoll)</text><path d="M305.5,177.9922 L369.5,177.9922 L369.5,185.125 L359.5,195.125 L305.5,195.125 L305.5,177.9922 " fill="#EEEEEE" style="stroke:#000000;stroke-width:1.5;"/><rect fill="none" height="396.2656" style="stroke:#000000;stroke-width:1.5;" width="722.5" x="305.5" y="177.9922"/><text fill="#000000" font-family="sans-serif" font-size="13" font-weight="bold" lengthAdjust="spacing" textLength="19" x="320.5" y="190.875">alt</text><text fill="#000000" font-family="sans-serif" font-size="11" font-weight="bold" lengthAdjust="spacing" textLength="119" x="384.5" y="190.0469">[player still has dice]</text><polygon fill="#181818" points="738,212.2578,748,216.2578,738,220.2578,742,216.2578" style="stroke:#181818;stroke-width:1.0;"/><line style="stroke:#181818;stroke-width:1.0;" x1="618" x2="744" y1="216.2578" y2="216.2578"/><text fill="#000000" font-family="sans-serif" font-size="13" lengthAdjust="spacing" textLength="89" x="625" y="211.0078">roll_dice_set()</text><polygon fill="#181818" points="629,241.3906,619,245.3906,629,249.3906,625,245.3906" style="stroke:#181818;stroke-width:1.0;"/><line style="stroke:#181818;stroke-width:1.0;stroke-dasharray:2.0,2.0;" x1="623" x2="754" y1="245.3906" y2="245.3906"/><text fill="#000000" font-family="sans-serif" font-size="13" lengthAdjust="spacing" textLength="36" x="635" y="240.1406">rolls[]</text><polygon fill="#181818" points="834.5,270.5234,844.5,274.5234,834.5,278.5234,838.5,274.5234" style="stroke:#181818;stroke-width:1.0;"/><line style="stroke:#181818;stroke-width:1.0;" x1="618" x2="840.5" y1="274.5234" y2="274.5234"/><text fill="#000000" font-family="sans-serif" font-size="13" lengthAdjust="spacing" textLength="118" x="625" y="269.2734">count_points(rolls)</text><polygon fill="#181818" points="629,299.6563,619,303.6563,629,307.6563,625,303.6563" style="stroke:#181818;stroke-width:1.0;"/><line style="stroke:#181818;stroke-width:1.0;stroke-dasharray:2.0,2.0;" x1="623" x2="850.5" y1="303.6563" y2="303.6563"/><text fill="#000000" font-family="sans-serif" font-size="13" lengthAdjust="spacing" textLength="39" x="635" y="298.4063">points</text><polygon fill="#181818" points="949,328.7891,959,332.7891,949,336.7891,953,332.7891" style="stroke:#181818;stroke-width:1.0;"/><line style="stroke:#181818;stroke-width:1.0;" x1="618" x2="955" y1="332.7891" y2="332.7891"/><text fill="#000000" font-family="sans-serif" font-size="13" lengthAdjust="spacing" textLength="205" x="625" y="327.5391">update_points(player_id, points)</text><line style="stroke:#000000;stroke-width:1.0;stroke-dasharray:2.0,2.0;" x1="305.5" x2="1028" y1="371.7891" y2="371.7891"/><text fill="#000000" font-family="sans-serif" font-size="11" font-weight="bold" lengthAdjust="spacing" textLength="113" x="310.5" y="381.8438">[player has no dice]</text><polygon fill="#181818" points="738,402.7266,748,406.7266,738,410.7266,742,406.7266" style="stroke:#181818;stroke-width:1.0;"/><line style="stroke:#181818;stroke-width:1.0;" x1="618" x2="744" y1="406.7266" y2="406.7266"/><text fill="#000000" font-family="sans-serif" font-size="13" lengthAdjust="spacing" textLength="89" x="625" y="401.4766">roll_dice_set()</text><polygon fill="#181818" points="629,431.8594,619,435.8594,629,439.8594,625,435.8594" style="stroke:#181818;stroke-width:1.0;"/><line style="stroke:#181818;stroke-width:1.0;stroke-dasharray:2.0,2.0;" x1="623" x2="754" y1="435.8594" y2="435.8594"/><text fill="#000000" font-family="sans-serif" font-size="13" lengthAdjust="spacing" textLength="108" x="635" y="430.6094">NoDiceException</text><line style="stroke:#181818;stroke-width:1.0;" x1="618" x2="665" y1="459.9922" y2="459.9922"/><line style="stroke:#181818;stroke-width:1.0;" x1="665" x2="665" y1="459.9922" y2="472.9922"/><line style="stroke:#181818;stroke-width:1.0;" x1="624" x2="665" y1="472.9922" y2="472.9922"/><polygon fill="#181818" points="634,468.9922,624,472.9922,634,476.9922,630,472.9922" style="stroke:#181818;stroke-width:1.0;"/><text fill="#000000" font-family="sans-serif" font-size="13" lengthAdjust="spacing" textLength="78" x="630" y="454.7422">drop_dead()</text><polygon fill="#181818" points="384,503.125,374,507.125,384,511.125,380,507.125" style="stroke:#181818;stroke-width:1.0;"/><line style="stroke:#181818;stroke-width:1.0;" x1="378" x2="612" y1="507.125" y2="507.125"/><text fill="#000000" font-family="sans-serif" font-size="13" lengthAdjust="spacing" textLength="113" x="390" y="501.875">onDropDead(self)</text><polygon fill="#181818" points="606,532.2578,616,536.2578,606,540.2578,610,536.2578" style="stroke:#181818;stroke-width:1.0;"/><line style="stroke:#181818;stroke-width:1.0;" x1="373" x2="612" y1="536.2578" y2="536.2578"/><text fill="#000000" font-family="sans-serif" font-size="13" lengthAdjust="spacing" textLength="114" x="380" y="531.0078">set_status(DEAD)</text><polygon fill="#181818" points="374,583.2578,364,587.2578,374,591.2578,370,587.2578" style="stroke:#181818;stroke-width:1.0;"/><line style="stroke:#181818;stroke-width:1.0;stroke-dasharray:2.0,2.0;" x1="368" x2="612" y1="587.2578" y2="587.2578"/><polygon fill="#181818" points="199,597.2578,189,601.2578,199,605.2578,195,601.2578" style="stroke:#181818;stroke-width:1.0;"/><line style="stroke:#181818;stroke-width:1.0;stroke-dasharray:2.0,2.0;" x1="193" x2="362" y1="601.2578" y2="601.2578"/><ellipse cx="7.5" cy="614.5078" fill="none" rx="4" ry="4" style="stroke:#181818;stroke-width:1.5;"/><polygon fill="#181818" points="24.5,611.2578,14.5,615.2578,24.5,619.2578,20.5,615.2578" style="stroke:#181818;stroke-width:1.0;"/><line style="stroke:#181818;stroke-width:1.0;stroke-dasharray:2.0,2.0;" x1="22.5" x2="182" y1="615.2578" y2="615.2578"/></g></svg>