<?xml version="1.0" encoding="us-ascii" standalone="no"?><svg xmlns="http://www.w3.org/2000/svg" xmlns:xlink="http://www.w3.org/1999/xlink" contentStyleType="text/css" height="542px" preserveAspectRatio="none" style="width:1179px;height:542px;background:#FFFFFF;" version="1.1" viewBox="0 0 1179 542" width="1179px" zoomAndPan="magnify"><defs/><g><text fill="#000000" font-family="sans-serif" font-size="14" font-weight="bold" lengthAdjust="spacing" textLength="157" x="512.5" y="27.7969">UC2: Initialize Game</text><rect fill="#FFFFFF" height="279.0625" style="stroke:#181818;stroke-width:1.0;" width="10" x="382.5" y="164.8594"/><rect fill="#FFFFFF" height="59.1328" style="stroke:#181818;stroke-width:1.0;" width="10" x="696.5" y="193.9922"/><rect fill="#FFFFFF" height="155.6641" style="stroke:#181818;stroke-width:1.0;" width="10" x="805.5" y="282.2578"/><rect fill="#FFFFFF" height="87.3984" style="stroke:#181818;stroke-width:1.0;" width="10" x="996.5" y="335.5234"/><rect fill="#FFFFFF" height="30" style="stroke:#181818;stroke-width:1.0;" width="10" x="1115.5" y="223.125"/><rect fill="#FFFFFF" height="29.1328" style="stroke:#181818;stroke-width:1.0;" width="10" x="1115.5" y="364.6563"/><rect fill="none" height="133.6641" style="stroke:#000000;stroke-width:1.5;" width="404" x="769" y="297.2578"/><line style="stroke:#181818;stroke-width:0.5;stroke-dasharray:5.0,5.0;" x1="59" x2="59" y1="118.5938" y2="461.9219"/><line style="stroke:#181818;stroke-width:0.5;stroke-dasharray:5.0,5.0;" x1="387.5" x2="387.5" y1="118.5938" y2="461.9219"/><line style="stroke:#181818;stroke-width:0.5;stroke-dasharray:5.0,5.0;" x1="701" x2="701" y1="118.5938" y2="461.9219"/><line style="stroke:#181818;stroke-width:0.5;stroke-dasharray:5.0,5.0;" x1="810" x2="810" y1="118.5938" y2="461.9219"/><line style="stroke:#181818;stroke-width:0.5;stroke-dasharray:5.0,5.0;" x1="1001.5" x2="1001.5" y1="118.5938" y2="461.9219"/><line style="stroke:#181818;stroke-width:0.5;stroke-dasharray:5.0,5.0;" x1="1120" x2="1120" y1="118.5938" y2="461.9219"/><text fill="#000000" font-family="sans-serif" font-size="14" lengthAdjust="spacing" textLength="103" x="5" y="115.0938">AutoDropDead</text><ellipse cx="59.5" cy="50.7969" fill="#E2E2F0" rx="8" ry="8" style="stroke:#181818;stroke-width:0.5;"/><path d="M59.5,58.7969 L59.5,85.7969 M46.5,66.7969 L72.5,66.7969 M59.5,85.7969 L46.5,100.7969 M59.5,85.7969 L72.5,100.7969 " fill="none" style="stroke:#181818;stroke-width:0.5;"/><text fill="#000000" font-family="sans-serif" font-size="14" lengthAdjust="spacing" textLength="103" x="5" y="473.7188">AutoDropDead</text><ellipse cx="59.5" cy="485.7188" fill="#E2E2F0" rx="8" ry="8" style="stroke:#181818;stroke-width:0.5;"/><path d="M59.5,493.7188 L59.5,520.7188 M46.5,501.7188 L72.5,501.7188 M59.5,520.7188 L46.5,535.7188 M59.5,520.7188 L72.5,535.7188 " fill="none" style="stroke:#181818;stroke-width:0.5;"/><rect fill="#E2E2F0" height="30.2969" rx="2.5" ry="2.5" style="stroke:#181818;stroke-width:0.5;" width="54" x="360.5" y="87.2969"/><text fill="#000000" font-family="sans-serif" font-size="14" lengthAdjust="spacing" textLength="40" x="367.5" y="107.0938">Arena</text><rect fill="#E2E2F0" height="30.2969" rx="2.5" ry="2.5" style="stroke:#181818;stroke-width:0.5;" width="54" x="360.5" y="460.9219"/><text fill="#000000" font-family="sans-serif" font-size="14" lengthAdjust="spacing" textLength="40" x="367.5" y="480.7188">Arena</text><rect fill="#E2E2F0" height="30.2969" rx="2.5" ry="2.5" style="stroke:#181818;stroke-width:0.5;" width="135" x="634" y="87.2969"/><text fill="#000000" font-family="sans-serif" font-size="14" lengthAdjust="spacing" textLength="121" x="641" y="107.0938">DiceSetController</text><rect fill="#E2E2F0" height="30.2969" rx="2.5" ry="2.5" style="stroke:#181818;stroke-width:0.5;" width="135" x="634" y="460.9219"/><text fill="#000000" font-family="sans-serif" font-size="14" lengthAdjust="spacing" textLength="121" x="641" y="480.7188">DiceSetController</text><rect fill="#E2E2F0" height="30.2969" rx="2.5" ry="2.5" style="stroke:#181818;stroke-width:0.5;" width="63" x="779" y="87.2969"/><text fill="#000000" font-family="sans-serif" font-size="14" lengthAdjust="spacing" textLength="49" x="786" y="107.0938">Players</text><rect fill="#E2E2F0" height="30.2969" rx="2.5" ry="2.5" style="stroke:#181818;stroke-width:0.5;" width="63" x="779" y="460.9219"/><text fill="#000000" font-family="sans-serif" font-size="14" lengthAdjust="spacing" textLength="49" x="786" y="480.7188">Players</text><rect fill="#E2E2F0" height="30.2969" rx="2.5" ry="2.5" style="stroke:#181818;stroke-width:0.5;" width="122" x="940.5" y="87.2969"/><text fill="#000000" font-family="sans-serif" font-size="14" lengthAdjust="spacing" textLength="108" x="947.5" y="107.0938">PlayerController</text><rect fill="#E2E2F0" height="30.2969" rx="2.5" ry="2.5" style="stroke:#181818;stroke-width:0.5;" width="122" x="940.5" y="460.9219"/><text fill="#000000" font-family="sans-serif" font-size="14" lengthAdjust="spacing" textLength="108" x="947.5" y="480.7188">PlayerController</text><rect fill="#E2E2F0" height="30.2969" rx="2.5" ry="2.5" style="stroke:#181818;stroke-width:0.5;" width="85" x="1078" y="87.2969"/><text fill="#000000" font-family="sans-serif" font-size="14" lengthAdjust="spacing" textLength="71" x="1085" y="107.0938">DropDead</text><rect fill="#E2E2F0" height="30.2969" rx="2.5" ry="2.5" style="stroke:#181818;stroke-width:0.5;" width="85" x="1078" y="460.9219"/><text fill="#000000" font-family="sans-serif" font-size="14" lengthAdjust="spacing" textLength="71" x="1085" y="480.7188">DropDead</text><rect fill="#FFFFFF" height="279.0625" style="stroke:#181818;stroke-width:1.0;" width="10" x="382.5" y="164.8594"/><rect fill="#FFFFFF" height="59.1328" style="stroke:#181818;stroke-width:1.0;" width="10" x="696.5" y="193.9922"/><rect fill="#FFFFFF" height="155.6641" style="stroke:#181818;stroke-width:1.0;" width="10" x="805.5" y="282.2578"/><rect fill="#FFFFFF" height="87.3984" style="stroke:#181818;stroke-width:1.0;" width="10" x="996.5" y="335.5234"/><rect fill="#FFFFFF" height="30" style="stroke:#181818;stroke-width:1.0;" width="10" x="1115.5" y="223.125"/><rect fill="#FFFFFF" height="29.1328" style="stroke:#181818;stroke-width:1.0;" width="10" x="1115.5" y="364.6563"/><polygon fill="#181818" points="370.5,160.8594,380.5,164.8594,370.5,168.8594,374.5,164.8594" style="stroke:#181818;stroke-width:1.0;"/><line style="stroke:#181818;stroke-width:1.0;" x1="59.5" x2="376.5" y1="164.8594" y2="164.8594"/><text fill="#000000" font-family="sans-serif" font-size="13" lengthAdjust="spacing" textLength="304" x="66.5" y="144.4766">initialize_game(player_count, dice_count, sides,</text><text fill="#000000" font-family="sans-serif" font-size="13" lengthAdjust="spacing" textLength="244" x="70.5" y="159.6094">DropDead, Players, DiceSetController)</text><polygon fill="#181818" points="684.5,189.9922,694.5,193.9922,684.5,197.9922,688.5,193.9922" style="stroke:#181818;stroke-width:1.0;"/><line style="stroke:#181818;stroke-width:1.0;" x1="392.5" x2="690.5" y1="193.9922" y2="193.9922"/><text fill="#000000" font-family="sans-serif" font-size="13" lengthAdjust="spacing" textLength="285" x="399.5" y="188.7422">configure_dice(dice_count, sides, DropDead)</text><polygon fill="#181818" points="1103.5,219.125,1113.5,223.125,1103.5,227.125,1107.5,223.125" style="stroke:#181818;stroke-width:1.0;"/><line style="stroke:#181818;stroke-width:1.0;" x1="706.5" x2="1109.5" y1="223.125" y2="223.125"/><text fill="#000000" font-family="sans-serif" font-size="13" lengthAdjust="spacing" textLength="212" x="713.5" y="217.875">configure_dice(dice_count, sides)</text><polygon fill="#181818" points="793.5,278.2578,803.5,282.2578,793.5,286.2578,797.5,282.2578" style="stroke:#181818;stroke-width:1.0;"/><line style="stroke:#181818;stroke-width:1.0;" x1="392.5" x2="799.5" y1="282.2578" y2="282.2578"/><text fill="#000000" font-family="sans-serif" font-size="13" lengthAdjust="spacing" textLength="269" x="399.5" y="277.0078">initialize_players(player_count, DropDead)</text><path d="M769,297.2578 L845,297.2578 L845,304.3906 L835,314.3906 L769,314.3906 L769,297.2578 " fill="#EEEEEE" style="stroke:#000000;stroke-width:1.5;"/><rect fill="none" height="133.6641" style="stroke:#000000;stroke-width:1.5;" width="404" x="769" y="297.2578"/><text fill="#000000" font-family="sans-serif" font-size="13" font-weight="bold" lengthAdjust="spacing" textLength="31" x="784" y="310.1406">loop</text><text fill="#000000" font-family="sans-serif" font-size="11" font-weight="bold" lengthAdjust="spacing" textLength="100" x="860" y="309.3125">[for player_count]</text><polygon fill="#181818" points="984.5,331.5234,994.5,335.5234,984.5,339.5234,988.5,335.5234" style="stroke:#181818;stroke-width:1.0;"/><line style="stroke:#181818;stroke-width:1.0;" x1="815.5" x2="990.5" y1="335.5234" y2="335.5234"/><text fill="#000000" font-family="sans-serif" font-size="13" lengthAdjust="spacing" textLength="162" x="822.5" y="330.2734">create_player(DropDead)</text><polygon fill="#181818" points="1103.5,360.6563,1113.5,364.6563,1103.5,368.6563,1107.5,364.6563" style="stroke:#181818;stroke-width:1.0;"/><line style="stroke:#181818;stroke-width:1.0;" x1="1006.5" x2="1109.5" y1="364.6563" y2="364.6563"/><text fill="#000000" font-family="sans-serif" font-size="13" lengthAdjust="spacing" textLength="90" x="1013.5" y="359.4063">invite_player()</text><polygon fill="#181818" points="1017.5,389.7891,1007.5,393.7891,1017.5,397.7891,1013.5,393.7891" style="stroke:#181818;stroke-width:1.0;"/><line style="stroke:#181818;stroke-width:1.0;stroke-dasharray:2.0,2.0;" x1="1011.5" x2="1119.5" y1="393.7891" y2="393.7891"/><text fill="#000000" font-family="sans-serif" font-size="13" lengthAdjust="spacing" textLength="57" x="1023.5" y="388.5391">player_id</text><polygon fill="#181818" points="826.5,418.9219,816.5,422.9219,826.5,426.9219,822.5,422.9219" style="stroke:#181818;stroke-width:1.0;"/><line style="stroke:#181818;stroke-width:1.0;stroke-dasharray:2.0,2.0;" x1="820.5" x2="1000.5" y1="422.9219" y2="422.9219"/><text fill="#000000" font-family="sans-serif" font-size="13" lengthAdjust="spacing" textLength="101" x="832.5" y="417.6719">PlayerController</text><polygon fill="#181818" points="70.5,439.9219,60.5,443.9219,70.5,447.9219,66.5,443.9219" style="stroke:#181818;stroke-width:1.0;"/><line style="stroke:#181818;stroke-width:1.0;stroke-dasharray:2.0,2.0;" x1="64.5" x2="386.5" y1="443.9219" y2="443.9219"/></g></svg>