<?xml version="1.0" encoding="us-ascii" standalone="no"?><svg xmlns="http://www.w3.org/2000/svg" xmlns:xlink="http://www.w3.org/1999/xlink" contentStyleType="text/css" height="430px" preserveAspectRatio="none" style="width:1419px;height:430px;background:#FFFFFF;" version="1.1" viewBox="0 0 1419 430" width="1419px" zoomAndPan="magnify"><defs/><g><text fill="#000000" font-family="sans-serif" font-size="14" font-weight="bold" lengthAdjust="spacing" textLength="137" x="642.5" y="27.7969">UC6: Invite Player</text><rect fill="#FFFFFF" height="272.2578" style="stroke:#181818;stroke-width:1.0;" width="10" x="117" y="104.7266"/><rect fill="#FFFFFF" height="229.125" style="stroke:#181818;stroke-width:1.0;" width="10" x="482" y="133.8594"/><rect fill="#FFFFFF" height="185.9922" style="stroke:#181818;stroke-width:1.0;" width="10" x="912" y="162.9922"/><rect fill="#FFFFFF" height="142.8594" style="stroke:#181818;stroke-width:1.0;" width="10" x="1052" y="192.125"/><rect fill="none" height="58.4297" style="stroke:#000000;stroke-width:1.5;" width="192" x="1221" y="248.4219"/><line style="stroke:#181818;stroke-width:0.5;stroke-dasharray:5.0,5.0;" x1="121.5" x2="121.5" y1="73.5938" y2="394.9844"/><line style="stroke:#181818;stroke-width:0.5;stroke-dasharray:5.0,5.0;" x1="486.5" x2="486.5" y1="73.5938" y2="394.9844"/><line style="stroke:#181818;stroke-width:0.5;stroke-dasharray:5.0,5.0;" x1="916.5" x2="916.5" y1="73.5938" y2="394.9844"/><line style="stroke:#181818;stroke-width:0.5;stroke-dasharray:5.0,5.0;" x1="1056.5" x2="1056.5" y1="73.5938" y2="394.9844"/><line style="stroke:#181818;stroke-width:0.5;stroke-dasharray:5.0,5.0;" x1="1265" x2="1265" y1="230.7734" y2="394.9844"/><line style="stroke:#181818;stroke-width:0.5;stroke-dasharray:5.0,5.0;" x1="1379" x2="1379" y1="296.2031" y2="394.9844"/><rect fill="#E2E2F0" height="30.2969" rx="2.5" ry="2.5" style="stroke:#181818;stroke-width:0.5;" width="85" x="79.5" y="42.2969"/><text fill="#000000" font-family="sans-serif" font-size="14" lengthAdjust="spacing" textLength="71" x="86.5" y="62.0938">DropDead</text><rect fill="#E2E2F0" height="30.2969" rx="2.5" ry="2.5" style="stroke:#181818;stroke-width:0.5;" width="85" x="79.5" y="393.9844"/><text fill="#000000" font-family="sans-serif" font-size="14" lengthAdjust="spacing" textLength="71" x="86.5" y="413.7813">DropDead</text><rect fill="#E2E2F0" height="30.2969" rx="2.5" ry="2.5" style="stroke:#181818;stroke-width:0.5;" width="95" x="439.5" y="42.2969"/><text fill="#000000" font-family="sans-serif" font-size="14" lengthAdjust="spacing" textLength="81" x="446.5" y="62.0938">Coordinator</text><rect fill="#E2E2F0" height="30.2969" rx="2.5" ry="2.5" style="stroke:#181818;stroke-width:0.5;" width="95" x="439.5" y="393.9844"/><text fill="#000000" font-family="sans-serif" font-size="14" lengthAdjust="spacing" textLength="81" x="446.5" y="413.7813">Coordinator</text><rect fill="#E2E2F0" height="30.2969" rx="2.5" ry="2.5" style="stroke:#181818;stroke-width:0.5;" width="97" x="868.5" y="42.2969"/><text fill="#000000" font-family="sans-serif" font-size="14" lengthAdjust="spacing" textLength="83" x="875.5" y="62.0938">PlayerModel</text><rect fill="#E2E2F0" height="30.2969" rx="2.5" ry="2.5" style="stroke:#181818;stroke-width:0.5;" width="97" x="868.5" y="393.9844"/><text fill="#000000" font-family="sans-serif" font-size="14" lengthAdjust="spacing" textLength="83" x="875.5" y="413.7813">PlayerModel</text><rect fill="#E2E2F0" height="30.2969" rx="2.5" ry="2.5" style="stroke:#181818;stroke-width:0.5;" width="95" x="1009.5" y="42.2969"/><text fill="#000000" font-family="sans-serif" font-size="14" lengthAdjust="spacing" textLength="81" x="1016.5" y="62.0938">DiceFactory</text><rect fill="#E2E2F0" height="30.2969" rx="2.5" ry="2.5" style="stroke:#181818;stroke-width:0.5;" width="95" x="1009.5" y="393.9844"/><text fill="#000000" font-family="sans-serif" font-size="14" lengthAdjust="spacing" textLength="81" x="1016.5" y="413.7813">DiceFactory</text><rect fill="#E2E2F0" height="30.2969" rx="2.5" ry="2.5" style="stroke:#181818;stroke-width:0.5;" width="68" x="1231" y="393.9844"/><text fill="#000000" font-family="sans-serif" font-size="14" lengthAdjust="spacing" textLength="54" x="1238" y="413.7813">DiceSet</text><rect fill="#E2E2F0" height="30.2969" rx="2.5" ry="2.5" style="stroke:#181818;stroke-width:0.5;" width="45" x="1357" y="393.9844"/><text fill="#000000" font-family="sans-serif" font-size="14" lengthAdjust="spacing" textLength="31" x="1364" y="413.7813">Dice</text><rect fill="#FFFFFF" height="272.2578" style="stroke:#181818;stroke-width:1.0;" width="10" x="117" y="104.7266"/><rect fill="#FFFFFF" height="229.125" style="stroke:#181818;stroke-width:1.0;" width="10" x="482" y="133.8594"/><rect fill="#FFFFFF" height="185.9922" style="stroke:#181818;stroke-width:1.0;" width="10" x="912" y="162.9922"/><rect fill="#FFFFFF" height="142.8594" style="stroke:#181818;stroke-width:1.0;" width="10" x="1052" y="192.125"/><ellipse cx="7.5" cy="103.9766" fill="none" rx="4" ry="4" style="stroke:#181818;stroke-width:1.5;"/><polygon fill="#181818" points="105,100.7266,115,104.7266,105,108.7266,109,104.7266" style="stroke:#181818;stroke-width:1.0;"/><line style="stroke:#181818;stroke-width:1.0;" x1="12" x2="111" y1="104.7266" y2="104.7266"/><text fill="#000000" font-family="sans-serif" font-size="13" lengthAdjust="spacing" textLength="90" x="15" y="99.4766">invite_player()</text><polygon fill="#181818" points="470,129.8594,480,133.8594,470,137.8594,474,133.8594" style="stroke:#181818;stroke-width:1.0;"/><line style="stroke:#181818;stroke-width:1.0;" x1="127" x2="476" y1="133.8594" y2="133.8594"/><text fill="#000000" font-family="sans-serif" font-size="13" lengthAdjust="spacing" textLength="336" x="134" y="128.6094">add_player(ScoreKeeper, PointCounter, DiceFactory)</text><polygon fill="#181818" points="900,158.9922,910,162.9922,900,166.9922,904,162.9922" style="stroke:#181818;stroke-width:1.0;"/><line style="stroke:#181818;stroke-width:1.0;" x1="492" x2="906" y1="162.9922" y2="162.9922"/><text fill="#000000" font-family="sans-serif" font-size="13" lengthAdjust="spacing" textLength="401" x="499" y="157.7422">create_player(status, PointCounter, ScoreKeeper, DiceFactory)</text><polygon fill="#181818" points="1040,188.125,1050,192.125,1040,196.125,1044,192.125" style="stroke:#181818;stroke-width:1.0;"/><line style="stroke:#181818;stroke-width:1.0;" x1="922" x2="1046" y1="192.125" y2="192.125"/><text fill="#000000" font-family="sans-serif" font-size="13" lengthAdjust="spacing" textLength="111" x="929" y="186.875">create_dice_set()</text><polygon fill="#181818" points="1219,217.2578,1229,221.2578,1219,225.2578,1223,221.2578" style="stroke:#181818;stroke-width:1.0;"/><line style="stroke:#181818;stroke-width:1.0;" x1="1062" x2="1225" y1="221.2578" y2="221.2578"/><text fill="#000000" font-family="sans-serif" font-size="13" lengthAdjust="spacing" textLength="145" x="1069" y="216.0078">new(sides, dice_count)</text><rect fill="#E2E2F0" height="30.2969" rx="2.5" ry="2.5" style="stroke:#181818;stroke-width:0.5;" width="68" x="1231" y="200.125"/><text fill="#000000" font-family="sans-serif" font-size="14" lengthAdjust="spacing" textLength="54" x="1238" y="219.9219">DiceSet</text><path d="M1221,248.4219 L1297,248.4219 L1297,255.5547 L1287,265.5547 L1221,265.5547 L1221,248.4219 " fill="#EEEEEE" style="stroke:#000000;stroke-width:1.5;"/><rect fill="none" height="58.4297" style="stroke:#000000;stroke-width:1.5;" width="192" x="1221" y="248.4219"/><text fill="#000000" font-family="sans-serif" font-size="13" font-weight="bold" lengthAdjust="spacing" textLength="31" x="1236" y="261.3047">loop</text><text fill="#000000" font-family="sans-serif" font-size="11" font-weight="bold" lengthAdjust="spacing" textLength="96" x="1312" y="260.4766">[for [dice_count]]</text><polygon fill="#181818" points="1345,282.6875,1355,286.6875,1345,290.6875,1349,286.6875" style="stroke:#181818;stroke-width:1.0;"/><line style="stroke:#181818;stroke-width:1.0;" x1="1265" x2="1351" y1="286.6875" y2="286.6875"/><text fill="#000000" font-family="sans-serif" font-size="13" lengthAdjust="spacing" textLength="68" x="1272" y="281.4375">new(sides)</text><rect fill="#E2E2F0" height="30.2969" rx="2.5" ry="2.5" style="stroke:#181818;stroke-width:0.5;" width="45" x="1357" y="265.5547"/><text fill="#000000" font-family="sans-serif" font-size="14" lengthAdjust="spacing" textLength="31" x="1364" y="285.3516">Dice</text><polygon fill="#181818" points="933,330.9844,923,334.9844,933,338.9844,929,334.9844" style="stroke:#181818;stroke-width:1.0;"/><line style="stroke:#181818;stroke-width:1.0;stroke-dasharray:2.0,2.0;" x1="927" x2="1056" y1="334.9844" y2="334.9844"/><text fill="#000000" font-family="sans-serif" font-size="13" lengthAdjust="spacing" textLength="50" x="939" y="329.7344">DiceSet</text><polygon fill="#181818" points="503,344.9844,493,348.9844,503,352.9844,499,348.9844" style="stroke:#181818;stroke-width:1.0;"/><line style="stroke:#181818;stroke-width:1.0;stroke-dasharray:2.0,2.0;" x1="497" x2="916" y1="348.9844" y2="348.9844"/><polygon fill="#181818" points="138,358.9844,128,362.9844,138,366.9844,134,362.9844" style="stroke:#181818;stroke-width:1.0;"/><line style="stroke:#181818;stroke-width:1.0;stroke-dasharray:2.0,2.0;" x1="132" x2="486" y1="362.9844" y2="362.9844"/><ellipse cx="7.5" cy="376.2344" fill="none" rx="4" ry="4" style="stroke:#181818;stroke-width:1.5;"/><polygon fill="#181818" points="24.5,372.9844,14.5,376.9844,24.5,380.9844,20.5,376.9844" style="stroke:#181818;stroke-width:1.0;"/><line style="stroke:#181818;stroke-width:1.0;stroke-dasharray:2.0,2.0;" x1="22.5" x2="121" y1="376.9844" y2="376.9844"/></g></svg>